<svg width="600" height="400" xmlns="http://www.w3.org/2000/svg">
  <defs>
    <linearGradient id="bg" x1="0%" y1="0%" x2="100%" y2="100%">
      <stop offset="0%" style="stop-color:#667eea;stop-opacity:1" />
      <stop offset="100%" style="stop-color:#764ba2;stop-opacity:1" />
    </linearGradient>
  </defs>
  
  <!-- Background -->
  <rect width="1000%" height="400%" fill="url(#bg)" />
  
  <!-- Tech Elements -->
  <g fill="rgba(255,255,255,0.1)">
    <!-- Code symbols -->
    <circle cx="100" cy="80" r="30" />
    <circle cx="500" cy="120" r="25" />
    <circle cx="150" cy="300" r="20" />
    <circle cx="450" cy="320" r="35" />
    
    <!-- Geometric shapes -->
    <polygon points="200,150 250,100 300,150 250,200" />
    <polygon points="350,250 400,200 450,250 400,300" />
    
    <!-- Lines connecting elements -->
    <line x1="100" y1="80" x2="200" y2="150" stroke="rgba(255,255,255,0.3)" stroke-width="2" />
    <line x1="300" y1="150" x2="400" y2="200" stroke="rgba(255,255,255,0.3)" stroke-width="2" />
    <line x1="450" y1="250" x2="500" y2="120" stroke="rgba(255,255,255,0.3)" stroke-width="2" />
  </g>
  
  <!-- Central tech icon -->
  <g fill="white" opacity="0.8">
    <circle cx="300" cy="200" r="60" fill="rgba(255,255,255,0.1)" />
    <!-- Gear icon -->
    <path d="M300,160 L310,170 L320,160 L330,170 L340,160 L340,180 L350,190 L340,200 L350,210 L340,220 L340,240 L330,230 L320,240 L310,230 L300,240 L290,230 L280,240 L270,230 L260,240 L260,220 L250,210 L260,200 L250,190 L260,180 L260,160 L270,170 L280,160 L290,170 Z M300,180 A20,20 0 0,1 300,220 A20,20 0 0,1 300,180 Z" />
  </g>
  
  <!-- Text overlay -->
  <text x="300" y="350" text-anchor="middle" font-family="Arial, sans-serif" font-size="24" font-weight="bold" fill="white" opacity="0.9">
    Araiza Inc
  </text>
  <text x="300" y="375" text-anchor="middle" font-family="Arial, sans-serif" font-size="14" fill="white" opacity="0.7">
    Soluciones Tecnológicas
  </text>
</svg>